# xmcd CD database file
#
# Track frame offsets:
#	150
#	2962
#	17682
#	31512
#	53917
#	69942
#	84882
#	104250
#	116552
#	130140
#
# Disc length: 1925 seconds
#
# Revision: 0
# Processed by: cddbd v1.5.2PL0 Copyright (c) Steve Scherf et al.
# Submitted via: CDex 1.51
#
DISCID=6e07830a
DTITLE=Erika Lieberman - Satyrs and Sirens
DYEAR=2001
DGENRE=New Age
TTITLE0=Intro - The Beckoning
TTITLE1=Satyrs-Sirens and Sidhe
TTITLE2=Reflection
TTITLE3=Without You
TTITLE4=Grandma Faye-Springtime in the Country
TTITLE5=Morrison's Jig
TTITLE6=Siuil A Ruin
TTITLE7=Flight of the Fairies
TTITLE8=Kathleen's Lament
TTITLE9=The Visit
EXTD=YEAR: 2001
EXTT0=
EXTT1=
EXTT2=
EXTT3=
EXTT4=
EXTT5=
EXTT6=
EXTT7=
EXTT8=
EXTT9=
PLAYORDER=
